<svg class="ldp-hexagon" width="46px"  height="36px"  xmlns="http://www.w3.org/2000/svg" xmlns:xlink="http://www.w3.org/1999/xlink" preserveAspectRatio="xMidYMid" style="background: none;"><defs>
  <pattern id="ldp-a34a1ea968c0e8" x="0" y="0" width="46" height="36" patternUnits="userSpaceOnUse">
    <path d="M 23 7 L 33.5 13 L 33.5 23 L 23 29 L 12.5 23 L 12.5 13 Z" fill="#f3f3f3" transform="translate(-11.5 -18)">
</path><path d="M 23 7 L 33.5 13 L 33.5 23 L 23 29 L 12.5 23 L 12.5 13 Z" fill="rgba(84.70588235294117%,86.66666666666667%,87.45098039215686%,0.139)" transform="translate(11.5 -18)">
</path><path d="M 23 7 L 33.5 13 L 33.5 23 L 23 29 L 12.5 23 L 12.5 13 Z" fill="rgba(72.15686274509805%,72.94117647058825%,74.11764705882355%,0.265)" transform="translate(-23 0)">
</path><path d="M 23 7 L 33.5 13 L 33.5 23 L 23 29 L 12.5 23 L 12.5 13 Z" fill="rgba(72.15686274509805%,72.94117647058825%,74.11764705882355%,0.265)" transform="translate(23 0)">
</path><path d="M 23 7 L 33.5 13 L 33.5 23 L 23 29 L 12.5 23 L 12.5 13 Z" fill="#f3f3f3" transform="translate(-11.5 18)">
</path><path d="M 23 7 L 33.5 13 L 33.5 23 L 23 29 L 12.5 23 L 12.5 13 Z" fill="rgba(84.70588235294117%,86.66666666666667%,87.45098039215686%,0.139)" transform="translate(11.5 18)">
</path><path d="M 23 7 L 33.5 13 L 33.5 23 L 23 29 L 12.5 23 L 12.5 13 Z" fill="rgba(63.921568627450974%,63.921568627450974%,67.45098039215686%,0.072)" transform="translate(0 0)">
</path>
  </pattern>
</defs>
<rect x="0" y="0" width="100%" height="100%" fill="url(#ldp-a34a1ea968c0e8)"></rect></svg>